<?xml version="1.0" encoding="UTF-8"?><svg id="Layer_1" xmlns="http://www.w3.org/2000/svg" width="285.42" height="172.66" viewBox="0 0 285.42 172.66"><defs><style>.cls-1{fill:#1f1310;}</style></defs><path class="cls-1" d="M16.66,3.69v32.28L37.49,3.69h17.7l-.6,3.3-22.21,33.31c3.36,5.71,6.33,12.15,9.9,17.69,4.01,6.24,6.81,9,14.49,5.27l6.01,11.76c-4.9,3.78-12.09,4.83-18.12,4.02-14.9-2.02-20.2-22.95-27.99-33.18v31.49l-.78.78H0V3.69h16.66Z"/><path class="cls-1" d="M83.83,78.13h-15.36l-.78-.78V23.47h16.14v6.77c7.54-10.48,26.83-11.24,33.09,1.02,1.38,2.71,3.36,9.85,3.36,12.77v33.32l-.78.78h-15.1l-.78-.78v-33.32c0-.53-1.24-3.42-1.65-4.08-3.56-5.76-12.78-5.52-16.07.42-.92,1.66-2.07,6.03-2.07,7.83v29.93Z"/><path class="cls-1" d="M181.73,23.47h14.58v13.01h-14.58v26.81c0,2.29,4.47,3.14,6.12,1.69,1.93-2.78,1.02-5.65.65-8.71h13.02c2.8,9.02.15,18.38-9.23,21.75-12.13,4.35-27.22-1.23-27.22-15.76v-25.77h-7.81v-13.01h9.37l2.86-13.53h11.46l.78.78v12.75Z"/><rect class="cls-1" x="131.74" y="23.47" width="16.14" height="54.66"/><path class="cls-1" d="M137.85.17c15.28-2.33,17.33,19.39.89,18.11-11.84-.92-11.98-16.42-.89-18.11Z"/><path class="cls-1" d="M99.45,129.67l21.61-32.8h16.92l-.6,3.82-22.12,32.87c3.88,5.21,9.56,20.59,14.73,23.61,4.67,2.72,9.06-.93,10-.37l5.59,11.91c-6.09,3.67-13.89,5.05-20.72,2.97-13.19-4.01-17.72-22.83-25.4-32.65v32.28h-16.66v-74.44h15.88l.78.78v32.02Z"/><path class="cls-1" d="M203.08,171.32h-16.14v-31.49c0-1.71-1.51-5.82-2.61-7.28-3.87-5.17-12.35-4.41-15.54,1.11-.32.55-1.64,4.25-1.64,4.61v33.06h-16.66v-53.88l.78-.78h15.1c1.53,1.51.5,4.24.79,6.25,9.75-10.85,28.84-10.3,33.99,4.8.57,1.67,1.94,6.97,1.94,8.48v35.14Z"/><path class="cls-1" d="M264.52,103.64v13.01h14.32l.78.78v11.45l-.78.78h-14.32v26.81c0,2.66,6.41,4.69,7.26-.55.38-2.38-.89-4.98.29-6.48h11.46c2.13,0,1.99,8.5,1.78,10.11-2.46,18.74-36.93,16.36-36.93-1v-28.89h-8.33v-13.01h9.37l2.08-13.01h13.02Z"/><path class="cls-1" d="M221.71,93.35c12.13-1.28,16.14,14.63,4.82,17.86-15.41,4.39-19.15-16.35-4.82-17.86Z"/><rect class="cls-1" x="214.53" y="116.66" width="16.14" height="54.66"/><path class="cls-1" d="M0,104.16l5.14-.07,1.6-7h8.92s.48,7.07.48,7.07h6.77s0,9.37,0,9.37h-6.77v11.97h2.08s0-4.69,0-4.69h7.81c4.05,10.57-6.33,17.66-15.98,13.64-1.95-.81-5.89-4.48-5.89-6.61v-14.32H0v-9.37Z"/><path class="cls-1" d="M45.19,103.79c24.24-2.78,27.02,29.82,4.53,31.6-23.69,1.88-26.52-29.08-4.53-31.6ZM53.84,119.54c0-3.4-2.76-6.16-6.17-6.16s-6.17,2.76-6.17,6.16,2.76,6.16,6.17,6.16,6.17-2.76,6.17-6.16Z"/></svg>