<?xml version="1.0" encoding="UTF-8"?><svg id="Layer_1" xmlns="http://www.w3.org/2000/svg" width="148.83" height="150.68" viewBox="0 0 148.83 150.68"><defs><style>.cls-1{fill:#4e3c35;}</style></defs><path class="cls-1" d="M61.01,111.13c5.29,11.49,12.18,21.87,20,31.69,2.07,1.81,3.33,4.99,5.6,6.36,1.8-.12,5.3-.12,4.18-2.74-5.28-8.04-12.69-14.67-17.02-23.22-1.86-5.18-5.36-9.93-7.58-14.93-.89-1.21-1.55-2.14-2.25-3.34-1.9.59-2.3,4.25-2.94,6.18Z"/><path class="cls-1" d="M57.22,121.16c2.82,8.02,8.92,14.52,13.11,21.78,2.97,4.85,6.02,10.51,12.21,6.22-7.04-7.66-12.27-16.57-18.19-25.03-2.87-3.06-5.64-13.14-7.13-2.97Z"/><path class="cls-1" d="M66.95,105.88c3.82,9.16,9.37,17.23,15.41,25.02,3.72,4.12,10.89,22.21,17.39,14.94.71-1.04.14-1.12-.49-1.82-3.17-3.4-5.75-7.25-8.7-10.87-6.93-9.87-14.4-19.74-23.61-27.27Z"/><path class="cls-1" d="M93.14,128.35c-11.22-10.23-9.46-5.89-1.83,3.15,3.98,4.74,7.21,10.75,12.28,13.99,12.36-.88-7.11-14.62-10.45-17.14Z"/><path class="cls-1" d="M110.99,142.5c5.87-1.67-3.45-4.13-5.11-5.4-.25.7,3.76,4.29,5.11,5.4Z"/><path class="cls-1" d="M44.82,146.05c1.52,2.8,5.72,3.56,8.42,2.6-3.6-3.87-6.02-12.4-8.42-2.6Z"/><path class="cls-1" d="M49.33,137.82c1.14,3.54,3.54,6.79,5.85,9.45.63,2.61,3.61,2.83,5.78,3.07,2.42.56,2.62-.95.92-2.49-1.48-2.56-3.53-4.79-5.06-7.37-2.68-3.76-5.57-11.49-7.48-2.66Z"/><path class="cls-1" d="M52.6,129.85c2.93,6.36,6.84,12.05,11.25,17.4.99,2.25,2.56,3.75,5.08,3.28,2.07-.7,5.3,1.46,4.32-1.98-5.82-7.36-12.15-14.41-16.5-22.71-1.98-4-3.71,2.13-4.15,4.02Z"/><path class="cls-1" d="M30.34,57.75c-.36,7-1.42,14.95.82,21.44,4.5-.03,4.92-3.74,4.1-7.35-.74-4.86-1.33-10.44-4.92-14.09Z"/><path class="cls-1" d="M25.27,46.86c-2.92,10.87-4.07,21.71-1.98,32.72,7.32,4.91,3.7-10.38,3.91-14.13,1-6.38,2.95-13.39-1.93-18.59Z"/><path class="cls-1" d="M42.22,75.47c-1.06-2-6.06-8.41-5.57-2.94-.28,4.8,2.26,5.04,5.57,2.94Z"/><path class="cls-1" d="M5.8,84.66c-.59-16.67,1.62-33.66,5.95-49.54C3.45,42.48,1.54,57.73.75,68.82c.39,4.83-4.06,19.83,5.05,15.84Z"/><path class="cls-1" d="M9.07,83.94c7.79,1.88,2.53-9.66,3.71-13.68-.06-8.48,2.46-17.14,3.45-25.64,1.51-4.41,3.75-8.7,4.7-13.23-.64-11.52-4.11-4.4-6.43,1.7-2.77,6.98-3.75,14.68-4.74,22-2.12,9.16-2.97,19.75-.69,28.86Z"/><path class="cls-1" d="M23.08,42.66c.24-1.65-1.7-10.42-2.4-5.7-4.56,13.05-6.9,26.82-5.69,40.61-.78,4.6,3.86,8.16,5.13,2.29.12-2.06-.79-4.11-.23-6.19-.1-1.32-.17-3.41.37-4.53.7-8.99,1.41-17.58,2.82-26.48Z"/><path class="cls-1" d="M62.38,23.63c-2.99-2.34-7.2-3.19-10.52-3.86-3.08,4.27,3.13,6.56,6.13,7.91,4.01,1.89,4.62-.73,4.39-4.05Z"/><path class="cls-1" d="M64.61,16.47c-3.54-2.87-8.44-3.19-12.52-4.69-1.7-.7-3.65-.44-3.25,1.67,1.29,4.67,6.22,5.84,10.31,6.58,3.58,1.55,5.57.35,5.46-3.56Z"/><path class="cls-1" d="M60.21,30.94c-1.56-1.05-3.97-2.3-5.62-2.66-3.72-1.79-1.63,3.74-.25,5,2.92,2.8,6.64,2.1,5.87-2.33Z"/><path class="cls-1" d="M57.48,41.45c.99-1.65,2.68-4.36-.09-5.29-4.11-1.96-1.17,3.87.09,5.29Z"/><path class="cls-1" d="M67.66,2.06c-1.73-3.46-11.43-1.91-13.01-.08,2.26,2.35,7.81,2.71,11.22,3.95,2.4-.82,2.13-1.68,1.79-3.87Z"/><path class="cls-1" d="M65.42,13.56c1.91-2.93,2.23-5.24-1.75-5.7-5.19-1.43-10.15-5.19-15.47-3.93-1.61.82-.36,2.63,0,3.9,1.19,1.61,3.8,1.22,5.62,1.62,3.72,1.44,7.82,2.93,11.6,4.11Z"/><path class="cls-1" d="M19,113.67c.53,3.49,2.46,5.84,3.88,8.81.11.44,2.15.41,2.25.52,2.28-3.69-1.21-12.93-6.13-9.33Z"/><path class="cls-1" d="M23.09,126.69c-1.67-3.76-6.11-16.18-11.18-11.81.09,5.78,4.9,10.92,7.49,15.87,2.15-.1,2.54-2.76,3.69-4.06Z"/><path class="cls-1" d="M28.83,117.13c2.01-3.72,3.24-9.61-2.47-5.36.52,2.22.16,4.67,2.47,5.36Z"/><path class="cls-1" d="M45.43,78.36c-1.48-1.87-3.87-.71-5.51.54-4.61,1.73-9.6,2.37-14.45,3.53-7.8,2.44-16.16,3.69-23.94,6.11-3.19,4.85,5.11,3.17,7.77,2.25,8.05-1.08,16.12-2.52,23.72-5.28,4.57-1.28,11.43-1.38,12.4-7.15Z"/><path class="cls-1" d="M35.14,102.83c-8.01,1.46-15.68,3.25-23.64,4.68-2.17.5-6.95.45-4.96,3.7,3.15,3.07,9.61.34,13.7.2,5.59-.61,13.63-2.1,14.9-8.58Z"/><path class="cls-1" d="M40.79,90.22c7.13-11.17-10.61-.89-14.58-.24-2.84.53-5.54,1.32-8.45,1.18-5.41,2.04-11.59,2.07-16.55,4.95.98,5.64,7.12,1.52,10.8,1.98,9.76-2.31,19.33-4.81,28.78-7.88Z"/><path class="cls-1" d="M37.66,98.56c.67-.99,1.48-3.12,1.43-4.27-4.9.01-9.48,1.16-14.08,2.29-5.39,1.39-10.74,2.99-16.08,4.5-1.48.8-4.01.36-4.77,1.85-2.02,8.53,10.94.63,14.97.64,6.13-1.7,13.01-1.43,18.53-5Z"/><path class="cls-1" d="M54.81,50.31c1.87-2.07,2.33-4.65.95-7.19-3.08-5.73-4.1-12.13-6.89-17.93-1.18-5.65-1.28-11.99-3-17.36-.07-2.18-.74-2.43-2.83-2.72-3.68,2.05-1.34,8.15-1.1,11.73.75,5.8,7.4,33.13,12.87,33.48Z"/><path class="cls-1" d="M46.07,76.27c6.7-6.22-5.43-12.44-7.66-18.21-5.14-11.9-10.21-24.18-12.89-36.81-.38-6.59-4.13-1.29-4.05,2.26,1.36,7.27,3.4,14.28,5.73,21.24,2.96,12.14,11.2,21.97,18.87,31.51Z"/><path class="cls-1" d="M52.79,58.1c2.74-3.86-1.7-6.68-3.36-9.78-4.49-8.65-6.84-18.21-8.72-27.78-.61-3.83-1.08-7.28-1.95-10.89-3.94-4.24-5.38,3.24-4.18,6.3,2.33,10.18,3.89,20.9,8.46,30.41,1.36,4.05,3.71,7.85,6.13,11.28.93,2.3,2.65,3.15,3.62.47Z"/><path class="cls-1" d="M49.17,68.06c3.76-7.1-4.79-12.36-7.51-18.14-3.13-7.04-5.02-14.65-7.21-21.97-.14-2.9-1.47-5.68-1.4-8.57-.64-1.9-.22-8.96-3.3-6.56-1.84,1.28-2.92,2.47-2.51,4.76,3.74,16.69,7.82,39.6,21.94,50.48Z"/><path class="cls-1" d="M128.81,117.79c1.36-18.64-3.48-36.95-9.34-54.42-.98-4.01-3.71-1.99-4.52.82.2,5.02,2.94,9.52,4.35,14.29,1.2,7.44,2.5,15.06,3.9,22.51.44,5.74-1.46,14.68,5.61,16.8Z"/><path class="cls-1" d="M120.12,58.47c3.73,10.57,7.42,20.74,9.26,31.75-.62,8.46,2.69,16.89,1.65,25.27-.55,3.49,2.8,7.55,5.76,4.37-.03-11.98-1.16-24.29-3.57-36.04-2.54-8.21-4.1-17.2-7.97-24.86-1.4-4.46-2.8-4.19-5.13-.48Z"/><path class="cls-1" d="M121.21,113.73c.39-15.09-1.18-30.25-7.6-44.11-.19-4.12-2.68-3.89-4.22-.59,1.44,6.09,3.37,11.94,4.43,18.1,2.58,8.53-2.33,22.01,7.39,26.61Z"/><path class="cls-1" d="M113.75,110.29c3.57.6-3.99-28.19-4.36-32.19-.91-2.01-1.28-4.28-2.29-5.94-3.49-1.8-3.5,3.98-2.67,6.21,1.69,6.89,1.9,13.65,3.96,20.32.59,4.21.36,10.26,5.35,11.6Z"/><path class="cls-1" d="M106.8,105.39c.43-8.99-3.64-18.44-4.45-27.55-1.43-5.02-6.56.25-5.05,3.56.73,4.55,1.78,8.87,2.77,13.21,0,4.36,1.61,10.39,6.73,10.78Z"/><path class="cls-1" d="M98.57,99.45c-.28-4.02-1.22-7.68-1.55-11.56-1.2-2.64-.57-8.82-4.91-6.82-3.37,2.41-.48,7.26-.18,10.45.71,3.38,3.34,6.97,6.64,7.93Z"/><path class="cls-1" d="M139.58,36.74c-6.33,3.91,4.65,18.57,5.19,24.55,1.82,6.18,1.72,12.89,4.04,18.85.14-14.53-.49-31.3-9.23-43.39Z"/><path class="cls-1" d="M134.69,41.94c-5.4,3.66.22,10.99.9,15.85,4.44,14.68,8.54,29.79,8.61,45.23.12.35.84,1.35.92,1.5.72-3.95,2.36-8.08,2.26-12.12,0-10.33-2.84-20.01-5.31-29.88-1.28-7.11-2.73-14.86-7.37-20.58Z"/><path class="cls-1" d="M126.48,52.01c-.57,4.51,2.6,8,3.6,12.1,2.29,4.68,2.36,9.96,3.39,14.92,1.01,5.09,3.23,10.27,3.7,15.33.31,7.97.69,15.81,1.23,23.69,9.94-7.56.24-40.45-2.85-51.89-.87-4.67-3.09-9.69-4.49-14.06-.93-4.34-3.34-3.85-4.58-.08Z"/><path class="cls-1" d="M83.92,86.38c.78,2.87,3.83,4.57,6.24,5.79-.63-4.23-1.03-11.51-6.24-5.79Z"/><path class="cls-1" d="M101.35,38.1c1.57-1.06,3.69-2.87,2.68-4.87-3.79-3.68-7.07-8.11-11.15-11.4-3.37-1.19-2.99,3.69-1.52,5.41,3.25,3.73,6.63,7.29,10,10.86Z"/><path class="cls-1" d="M106.45,32.27c4.48-2.07,3.04-4.46-.16-7.11-3.12-3.75-6.63-7.96-10.74-10.54-3.18-2.26-4.9,1.67-3.76,4.3,5.75,3.62,10.35,8.28,14.66,13.35Z"/><path class="cls-1" d="M87.85,33.83c2.73,3.2,6.69,12.44,11.24,7.71,1.89-3.75-3.78-6.11-5.69-8.6-2.73-3.9-5.66-5.05-5.55.89Z"/><path class="cls-1" d="M85.12,42.69c2.07,2,4.25,5.32,7.04,5.56,4.8-2.41.87-6.18-1.97-8.26-2.47-4.23-4.98-.5-5.07,2.7Z"/><path class="cls-1" d="M82.52,51.05c1.99,2.83,5.05,1.27,6.61-1.04-3.24-5.55-5.73-6.06-6.61,1.04Z"/><path class="cls-1" d="M115.87,20.22c1.73-1.19,3.67-3.46,1.85-5.44-5.16-3.76-10.83-6.82-16.77-8.81,5.79,3.98,9.34,10.39,14.91,14.25Z"/><path class="cls-1" d="M111.33,26.15c3.23-2.13,1.3-5.35-1.23-7.27-4.21-5.04-9.59-9.35-14.04-14.18-2.13,1.17-1.87,3.68-1.18,5.61,1.26,1.75,3.4,2.73,4.83,4.34,3.71,3.9,7.36,8.34,11.62,11.49Z"/><path class="cls-1" d="M79.55,88.69c-15.34.72-1.15,7.65,3.3,12.57,4.4,2.48,7.89,6.27,11.75,9.41,6.84,3.7,11.81,8.94,18.39,12.96,5.3,1.86,12.61,9.34,17.93,5.71,1.95-1.33,4.92-4.44,1.53-5.72-13.73-3.99-23.96-12.58-35.51-20.64-5.92-4.46-10.59-11.21-17.38-14.29Z"/><path class="cls-1" d="M68.56,92.22c-6.44,8.53-.5,10.51,5.32,16.02,8.01,7.6,16.14,14.8,25.77,20.24,6.47,3.02,12.52,12.11,20.27,9.1,1.29-.7,2.68-.97,3.2-2.13.13-1.89-.59-2.15-2.05-2.75-10.72-6.56-21.38-12.67-31.03-20.65-7.89-5.69-13.66-14.23-21.47-19.83Z"/><path class="cls-1" d="M79.23,64.33c-11.66,22.01,20.02-4.39,24.56-9.8,3.64-2.78,5.34-6.55,8.51-9.55,4.09-5.25,9.97-9.65,13.01-15.61,1.28-1.81,2.72-3.6,2.49-5.77-1.51-1.97-3.3-5.03-5.94-3.68-4.34,6.26-8.27,13.14-13.52,18.7-4.6,2.85-7.17,7.6-10.92,11.36-7.31,7.33-12.23,9.12-15.98,11.8-.93.66-1.68,1.55-2.21,2.56Z"/><path class="cls-1" d="M76.59,76.9c-2.99,2-4.39,5.82-4.55,9.24-.02.39.34.7.73.62,10.3-2.21,18.41-5.98,26.43-12.79,14.4-9.56,24.64-23.41,35.67-36.56,2.24-2.7,3.31-5.19.54-7.85-2.49-4.05-4.97.12-6.7,2.4-14.89,18.36-29.61,36.22-52.12,44.94Z"/><path class="cls-1" d="M46.48,108c10.02-23.59,19.1-47.87,25.49-72.71,1.21-5.33,3.76-10.85,5.36-16.05,1.54-5.32,1.5-10.76,3.06-15.99.29-1.68-.03-1.99-1.94-2.43-1.83-.46-3.73-1.16-5.1.37-3.14,9.08-4.83,18.83-7.69,28.09-2.9,10.84-6.61,21.26-9.7,31.94-2.42,4.5-3.91,9.23-5.03,14.09-1.6,3.1-2.78,6.11-3.41,9.5-4.92,10.35-8.66,21.55-14.47,31.19-2.24,4.77-3.5,9.46-6.72,13.64-2.82,2.61-5.53,5.86-1.31,8.36,1.65,1.76,4.28,2.23,5.35-.42,6.5-9.2,10.19-20.08,16.12-29.57Z"/><path class="cls-1" d="M62.37,100.34c5.77-13.17,9.05-27.25,14.67-40.35,2.05-3.36,1.01-7.25,2.94-10.69,3.62-6.75,4.55-14.31,6.58-21.61,1.18-5.57,2.85-10.93,4.14-16.52.84-4.46,3.91-8.72-2.92-8.79-3.43-1.96-3.9,3.36-4.46,5.43-.96,2.12-1.06,4-1.51,6.09-.72,1.25-.71,2.67-.97,3.99-5.97,21.6-11.78,43.36-20.13,64.2-5.29,16.03-12.05,31.92-20.06,46.72-1.63,3.95-4.37,7.18-6.06,11.08-1.25,1.79-2.61,4.02.19,4.99,3.69,2.12,5.98,1.98,7.78-2.03,1.74-3.25,2.93-6.42,4.9-9.43.96-2.06,1.91-4.26,3.4-5.96.61-3.38,2.9-6.11,3.57-9.49,2.61-5.82,5.4-11.8,7.96-17.63Z"/></svg>