<svg xmlns="http://www.w3.org/2000/svg" xmlns:xlink="http://www.w3.org/1999/xlink" width="40" zoomAndPan="magnify" viewBox="0 0 30 30.000001" height="40" preserveAspectRatio="xMidYMid meet" version="1.0"><defs><clipPath id="b74802194d"><path d="M 4.113281 3.628906 L 25.886719 3.628906 L 25.886719 25.402344 L 4.113281 25.402344 Z M 4.113281 3.628906 " clip-rule="nonzero"/></clipPath></defs><g clip-path="url(#b74802194d)"><path fill="#4e4e4e" d="M 15 3.628906 C 14.285156 3.628906 13.578125 3.699219 12.875 3.839844 C 12.175781 3.976562 11.492188 4.183594 10.832031 4.457031 C 10.171875 4.730469 9.546875 5.066406 8.953125 5.464844 C 8.355469 5.859375 7.808594 6.3125 7.300781 6.816406 C 6.796875 7.324219 6.34375 7.875 5.949219 8.46875 C 5.550781 9.0625 5.214844 9.6875 4.941406 10.351562 C 4.667969 11.011719 4.460938 11.691406 4.320312 12.390625 C 4.183594 13.09375 4.113281 13.800781 4.113281 14.515625 C 4.113281 15.230469 4.183594 15.9375 4.320312 16.640625 C 4.460938 17.339844 4.667969 18.023438 4.941406 18.683594 C 5.214844 19.34375 5.550781 19.96875 5.949219 20.566406 C 6.34375 21.160156 6.796875 21.710938 7.300781 22.214844 C 7.808594 22.71875 8.355469 23.171875 8.953125 23.570312 C 9.546875 23.964844 10.171875 24.300781 10.832031 24.574219 C 11.492188 24.847656 12.175781 25.054688 12.875 25.195312 C 13.578125 25.332031 14.285156 25.402344 15 25.402344 C 15.714844 25.402344 16.421875 25.332031 17.125 25.195312 C 17.824219 25.054688 18.507812 24.847656 19.167969 24.574219 C 19.828125 24.300781 20.453125 23.964844 21.046875 23.570312 C 21.644531 23.171875 22.191406 22.71875 22.699219 22.214844 C 23.203125 21.710938 23.65625 21.160156 24.050781 20.566406 C 24.449219 19.96875 24.785156 19.34375 25.058594 18.683594 C 25.332031 18.023438 25.539062 17.339844 25.679688 16.640625 C 25.816406 15.9375 25.886719 15.230469 25.886719 14.515625 C 25.886719 13.800781 25.816406 13.09375 25.679688 12.390625 C 25.539062 11.691406 25.332031 11.011719 25.058594 10.351562 C 24.785156 9.6875 24.449219 9.0625 24.050781 8.46875 C 23.65625 7.875 23.203125 7.324219 22.699219 6.816406 C 22.191406 6.3125 21.644531 5.859375 21.046875 5.464844 C 20.453125 5.066406 19.828125 4.730469 19.167969 4.457031 C 18.507812 4.183594 17.824219 3.976562 17.125 3.839844 C 16.421875 3.699219 15.714844 3.628906 15 3.628906 Z M 10.464844 13.480469 C 10.539062 13.296875 10.679688 13.203125 10.882812 13.199219 L 12.496094 13.199219 L 12.496094 8.664062 C 12.496094 8.539062 12.539062 8.433594 12.628906 8.34375 C 12.71875 8.253906 12.824219 8.210938 12.949219 8.210938 L 17.097656 8.210938 C 17.222656 8.210938 17.328125 8.253906 17.417969 8.34375 C 17.503906 8.433594 17.550781 8.539062 17.550781 8.664062 L 17.550781 13.199219 L 19.164062 13.199219 C 19.363281 13.203125 19.5 13.296875 19.578125 13.480469 C 19.652344 13.664062 19.621094 13.828125 19.480469 13.972656 L 17.421875 16.03125 L 15.316406 18.144531 C 15.230469 18.234375 15.125 18.28125 15 18.28125 C 14.871094 18.28125 14.761719 18.238281 14.671875 18.144531 L 12.613281 16.058594 L 10.546875 13.988281 C 10.402344 13.839844 10.375 13.671875 10.464844 13.480469 Z M 19.601562 20.324219 C 19.601562 20.449219 19.554688 20.554688 19.46875 20.644531 C 19.378906 20.730469 19.269531 20.777344 19.144531 20.777344 L 10.855469 20.777344 C 10.730469 20.777344 10.621094 20.730469 10.53125 20.644531 C 10.445312 20.554688 10.398438 20.449219 10.398438 20.324219 L 10.398438 19.414062 C 10.398438 19.289062 10.445312 19.183594 10.53125 19.09375 C 10.621094 19.007812 10.730469 18.960938 10.855469 18.960938 L 19.136719 18.960938 C 19.261719 18.960938 19.371094 19.007812 19.457031 19.09375 C 19.546875 19.183594 19.589844 19.289062 19.589844 19.414062 L 19.589844 20.324219 Z M 19.601562 20.324219 " fill-opacity="1" fill-rule="nonzero"/></g></svg>