<svg xmlns="http://www.w3.org/2000/svg" xmlns:xlink="http://www.w3.org/1999/xlink" width="40" zoomAndPan="magnify" viewBox="0 0 30 30.000001" height="40" preserveAspectRatio="xMidYMid meet" version="1.0"><defs><clipPath id="c049e0ccd3"><path d="M 5.203125 4.71875 L 24.796875 4.71875 L 24.796875 24.316406 L 5.203125 24.316406 Z M 5.203125 4.71875 " clip-rule="nonzero"/></clipPath></defs><g clip-path="url(#c049e0ccd3)"><path fill="#4e4e4e" d="M 21.015625 4.972656 C 20.773438 4.730469 20.339844 4.730469 20.097656 4.972656 L 6.832031 18.238281 C 6.832031 18.238281 6.832031 18.238281 6.832031 18.242188 C 6.777344 18.292969 6.738281 18.359375 6.707031 18.425781 C 6.699219 18.445312 6.691406 18.460938 6.6875 18.476562 C 6.679688 18.492188 6.671875 18.507812 6.667969 18.523438 L 5.289062 23.488281 C 5.226562 23.714844 5.292969 23.957031 5.457031 24.125 C 5.582031 24.246094 5.746094 24.316406 5.917969 24.316406 C 5.976562 24.316406 6.035156 24.308594 6.09375 24.289062 L 11.058594 22.914062 C 11.074219 22.910156 11.085938 22.902344 11.101562 22.894531 C 11.121094 22.890625 11.136719 22.882812 11.152344 22.875 C 11.222656 22.84375 11.289062 22.800781 11.339844 22.75 C 11.34375 22.75 11.34375 22.75 11.34375 22.746094 L 11.347656 22.746094 C 11.347656 22.746094 11.347656 22.746094 11.347656 22.742188 L 24.609375 9.484375 C 24.730469 9.363281 24.796875 9.195312 24.796875 9.023438 C 24.796875 8.851562 24.730469 8.6875 24.609375 8.5625 Z M 18.335938 8.574219 L 21.003906 11.246094 L 10.882812 21.367188 L 8.214844 18.695312 Z M 6.851562 22.730469 L 7.625 19.945312 L 9.632812 21.957031 Z M 21.925781 10.324219 L 19.257812 7.65625 L 20.558594 6.355469 L 23.226562 9.023438 Z M 21.925781 10.324219 " fill-opacity="1" fill-rule="nonzero"/></g></svg>