<svg xmlns="http://www.w3.org/2000/svg" xmlns:xlink="http://www.w3.org/1999/xlink" width="40" zoomAndPan="magnify" viewBox="0 0 30 30.000001" height="40" preserveAspectRatio="xMidYMid meet" version="1.0"><defs><clipPath id="8a19745caa"><path d="M 4.113281 6.8125 L 25.886719 6.8125 L 25.886719 22.054688 L 4.113281 22.054688 Z M 4.113281 6.8125 " clip-rule="nonzero"/></clipPath></defs><g clip-path="url(#8a19745caa)"><path fill="#4e4e4e" d="M 20.914062 12.386719 C 21.027344 12.6875 21.027344 12.988281 20.914062 13.289062 C 20.839844 13.441406 20.765625 13.554688 20.652344 13.667969 L 15.828125 18.449219 L 13.34375 20.9375 C 13.191406 21.085938 12.964844 21.085938 12.816406 20.9375 C 12.664062 20.785156 12.664062 20.558594 12.816406 20.410156 L 15.039062 18.1875 L 9.6875 12.835938 L 5.128906 17.394531 C 4.980469 17.546875 4.980469 17.808594 5.128906 17.960938 L 7.578125 20.410156 C 7.730469 20.558594 7.730469 20.785156 7.578125 20.9375 C 7.503906 21.011719 7.390625 21.050781 7.316406 21.050781 C 7.238281 21.050781 7.089844 21.011719 7.011719 20.9375 L 4.566406 18.488281 C 4.113281 18.035156 4.113281 17.28125 4.566406 16.832031 L 14.246094 7.222656 C 14.320312 7.148438 14.359375 7.113281 14.433594 7.074219 C 14.511719 7.035156 14.585938 7 14.625 6.960938 C 14.925781 6.847656 15.226562 6.847656 15.488281 6.960938 C 15.566406 7 15.640625 7.035156 15.679688 7.074219 C 15.753906 7.113281 15.792969 7.148438 15.867188 7.222656 L 20.652344 12.007812 C 20.765625 12.085938 20.839844 12.234375 20.914062 12.386719 Z M 25.511719 21.425781 L 22.15625 21.425781 C 21.929688 21.425781 21.78125 21.578125 21.78125 21.804688 C 21.78125 22.03125 21.929688 22.179688 22.15625 22.179688 L 25.511719 22.179688 C 25.738281 22.179688 25.886719 22.03125 25.886719 21.804688 C 25.886719 21.578125 25.699219 21.425781 25.511719 21.425781 Z M 20.273438 21.425781 L 17.148438 21.425781 C 16.921875 21.425781 16.769531 21.578125 16.769531 21.804688 C 16.769531 22.03125 16.921875 22.179688 17.148438 22.179688 L 20.273438 22.179688 C 20.5 22.179688 20.652344 22.03125 20.652344 21.804688 C 20.652344 21.578125 20.5 21.425781 20.273438 21.425781 Z M 16.015625 21.425781 L 4.488281 21.425781 C 4.261719 21.425781 4.113281 21.578125 4.113281 21.804688 C 4.113281 22.03125 4.261719 22.179688 4.488281 22.179688 L 15.980469 22.179688 C 16.207031 22.179688 16.355469 22.03125 16.355469 21.804688 C 16.355469 21.578125 16.207031 21.425781 16.015625 21.425781 Z M 16.015625 21.425781 " fill-opacity="1" fill-rule="nonzero"/></g></svg>