<svg xmlns="http://www.w3.org/2000/svg" xmlns:xlink="http://www.w3.org/1999/xlink" width="40" zoomAndPan="magnify" viewBox="0 0 30 30.000001" height="40" preserveAspectRatio="xMidYMid meet" version="1.0"><defs><clipPath id="dfc0a3b4eb"><path d="M 5.925781 5.445312 L 24.074219 5.445312 L 24.074219 23.589844 L 5.925781 23.589844 Z M 5.925781 5.445312 " clip-rule="nonzero"/></clipPath></defs><g clip-path="url(#dfc0a3b4eb)"><path fill="#4e4e4e" d="M 23.835938 5.445312 L 6.164062 5.445312 C 6.03125 5.445312 5.925781 5.550781 5.925781 5.679688 L 5.925781 23.351562 C 5.925781 23.484375 6.03125 23.589844 6.164062 23.589844 L 23.835938 23.589844 C 23.96875 23.589844 24.074219 23.484375 24.074219 23.351562 L 24.074219 5.679688 C 24.074219 5.550781 23.96875 5.445312 23.835938 5.445312 Z M 23.601562 23.117188 L 15.234375 23.117188 C 15.234375 23.117188 15.234375 14.75 15.234375 14.75 C 15.234375 14.75 23.601562 14.75 23.601562 14.75 Z M 14.765625 19.269531 L 14.765625 23.117188 L 6.398438 23.117188 C 6.398438 23.117188 6.398438 14.75 6.398438 14.75 C 6.398438 14.75 14.765625 14.75 14.765625 14.75 Z M 23.601562 14.28125 L 15.234375 14.28125 C 15.234375 14.28125 15.234375 5.914062 15.234375 5.914062 C 15.234375 5.914062 23.601562 5.914062 23.601562 5.914062 Z M 14.765625 10.433594 L 14.765625 14.28125 L 6.398438 14.28125 C 6.398438 14.28125 6.398438 5.914062 6.398438 5.914062 C 6.398438 5.914062 14.765625 5.914062 14.765625 5.914062 Z M 14.765625 10.433594 " fill-opacity="1" fill-rule="evenodd"/></g></svg>