<svg xmlns="http://www.w3.org/2000/svg" xmlns:xlink="http://www.w3.org/1999/xlink" width="40" zoomAndPan="magnify" viewBox="0 0 30 30.000001" height="40" preserveAspectRatio="xMidYMid meet" version="1.0"><defs><clipPath id="45c319986a"><path d="M 7 4 L 14 4 L 14 22 L 7 22 Z M 7 4 " clip-rule="nonzero"/></clipPath><clipPath id="251770fe05"><path d="M 1.355469 10.9375 L 11.777344 3.054688 L 19.65625 13.476562 L 9.238281 21.355469 Z M 1.355469 10.9375 " clip-rule="nonzero"/></clipPath><clipPath id="7a34352d49"><path d="M 1.355469 10.9375 L 11.777344 3.054688 L 19.65625 13.476562 L 9.238281 21.355469 Z M 1.355469 10.9375 " clip-rule="nonzero"/></clipPath></defs><path fill="#4e4e4e" d="M 9.371094 22.332031 L 17.699219 15.320312 C 17.808594 15.226562 17.933594 15.160156 18.070312 15.113281 C 18.207031 15.070312 18.347656 15.054688 18.492188 15.066406 C 18.636719 15.082031 18.773438 15.121094 18.898438 15.1875 C 19.027344 15.253906 19.140625 15.339844 19.230469 15.453125 C 19.324219 15.5625 19.394531 15.6875 19.4375 15.824219 C 19.480469 15.960938 19.496094 16.101562 19.484375 16.246094 C 19.472656 16.390625 19.433594 16.527344 19.367188 16.652344 C 19.300781 16.78125 19.210938 16.890625 19.101562 16.984375 L 10.773438 23.996094 C 10.660156 24.089844 10.539062 24.160156 10.398438 24.203125 C 10.261719 24.246094 10.121094 24.261719 9.976562 24.25 C 9.835938 24.238281 9.699219 24.199219 9.570312 24.132812 C 9.441406 24.066406 9.332031 23.976562 9.238281 23.867188 C 9.144531 23.753906 9.078125 23.632812 9.035156 23.496094 C 8.988281 23.355469 8.972656 23.214844 8.984375 23.070312 C 9 22.929688 9.039062 22.792969 9.105469 22.664062 C 9.171875 22.535156 9.257812 22.425781 9.371094 22.332031 Z M 21.027344 12.515625 L 23.472656 10.457031 C 23.582031 10.363281 23.707031 10.296875 23.84375 10.253906 C 23.980469 10.207031 24.121094 10.191406 24.265625 10.207031 C 24.410156 10.21875 24.546875 10.257812 24.675781 10.324219 C 24.804688 10.390625 24.914062 10.480469 25.007812 10.589844 C 25.097656 10.699219 25.167969 10.824219 25.210938 10.960938 C 25.253906 11.097656 25.269531 11.238281 25.257812 11.382812 C 25.246094 11.527344 25.207031 11.664062 25.140625 11.792969 C 25.074219 11.917969 24.984375 12.03125 24.875 12.125 L 22.429688 14.179688 C 22.320312 14.273438 22.195312 14.34375 22.058594 14.386719 C 21.921875 14.429688 21.78125 14.445312 21.636719 14.433594 C 21.492188 14.421875 21.355469 14.378906 21.230469 14.3125 C 21.101562 14.246094 20.992188 14.160156 20.898438 14.050781 C 20.804688 13.9375 20.734375 13.816406 20.691406 13.675781 C 20.648438 13.539062 20.632812 13.398438 20.644531 13.253906 C 20.65625 13.109375 20.695312 12.976562 20.761719 12.847656 C 20.828125 12.71875 20.917969 12.609375 21.027344 12.515625 Z M 21.027344 12.515625 " fill-opacity="1" fill-rule="nonzero"/><g clip-path="url(#45c319986a)"><g clip-path="url(#251770fe05)"><g clip-path="url(#7a34352d49)"><path fill="#4e4e4e" d="M 10.03125 4.59375 C 9.800781 4.5625 9.566406 4.738281 9.535156 4.96875 L 7.78125 17.589844 L 7.78125 17.59375 C 7.78125 17.59375 7.78125 17.59375 7.78125 17.597656 C 7.773438 17.644531 7.78125 17.699219 7.789062 17.75 C 7.792969 17.761719 7.796875 17.773438 7.800781 17.785156 C 7.804688 17.792969 7.804688 17.804688 7.808594 17.816406 L 9.097656 21.070312 C 9.15625 21.21875 9.289062 21.324219 9.449219 21.347656 C 9.566406 21.363281 9.683594 21.332031 9.777344 21.261719 C 9.808594 21.238281 9.835938 21.210938 9.859375 21.175781 L 11.988281 18.398438 C 11.996094 18.386719 11.996094 18.378906 12.003906 18.367188 C 12.011719 18.355469 12.015625 18.347656 12.023438 18.335938 C 12.046875 18.289062 12.066406 18.242188 12.074219 18.191406 C 12.074219 18.191406 12.074219 18.191406 12.074219 18.1875 C 12.074219 18.1875 12.074219 18.1875 12.074219 18.183594 L 13.828125 5.566406 C 13.84375 5.449219 13.8125 5.332031 13.742188 5.238281 C 13.671875 5.144531 13.566406 5.082031 13.449219 5.066406 Z M 10.054688 7.644531 L 12.597656 7.996094 L 11.257812 17.628906 L 8.71875 17.277344 Z M 9.632812 20.019531 L 8.910156 18.195312 L 10.824219 18.460938 Z M 12.71875 7.121094 L 10.175781 6.769531 L 10.347656 5.53125 L 12.890625 5.882812 Z M 12.71875 7.121094 " fill-opacity="1" fill-rule="nonzero"/></g></g></g></svg>