<svg xmlns="http://www.w3.org/2000/svg" xmlns:xlink="http://www.w3.org/1999/xlink" width="40" zoomAndPan="magnify" viewBox="0 0 30 30.000001" height="40" preserveAspectRatio="xMidYMid meet" version="1.0"><defs><clipPath id="220121e03b"><path d="M 4.113281 3.628906 L 25.886719 3.628906 L 25.886719 25.402344 L 4.113281 25.402344 Z M 4.113281 3.628906 " clip-rule="nonzero"/></clipPath></defs><g clip-path="url(#220121e03b)"><path fill="#4e4e4e" d="M 14.546875 3.628906 L 14.546875 11.792969 L 15.453125 11.792969 L 15.453125 3.628906 Z M 13.640625 5.101562 C 9.476562 5.699219 6.179688 8.992188 5.582031 13.15625 L 6.496094 13.15625 C 7.082031 9.496094 9.976562 6.601562 13.640625 6.015625 Z M 16.359375 5.101562 L 16.359375 6.015625 C 20.023438 6.601562 22.917969 9.496094 23.503906 13.15625 L 24.417969 13.15625 C 23.820312 8.992188 20.523438 5.699219 16.359375 5.101562 Z M 13.640625 9.71875 C 11.980469 10.191406 10.675781 11.5 10.203125 13.15625 L 11.152344 13.15625 C 11.566406 12 12.480469 11.082031 13.640625 10.671875 Z M 16.359375 9.71875 L 16.359375 10.671875 C 17.519531 11.082031 18.433594 12 18.847656 13.15625 L 19.796875 13.15625 C 19.324219 11.5 18.019531 10.191406 16.359375 9.71875 Z M 15 13.15625 C 14.25 13.15625 13.640625 13.765625 13.640625 14.515625 C 13.640625 15.265625 14.25 15.878906 15 15.878906 C 15.753906 15.878906 16.335938 15.265625 16.335938 14.515625 C 16.335938 13.765625 15.753906 13.15625 15 13.15625 Z M 4.113281 14.0625 L 4.113281 14.96875 L 12.277344 14.96875 L 12.277344 14.0625 Z M 17.722656 14.0625 L 17.722656 14.96875 L 25.886719 14.96875 L 25.886719 14.0625 Z M 5.582031 15.878906 C 6.179688 20.039062 9.476562 23.332031 13.640625 23.933594 L 13.640625 23.015625 C 9.976562 22.429688 7.082031 19.539062 6.496094 15.878906 Z M 10.203125 15.878906 C 10.675781 17.535156 11.980469 18.839844 13.640625 19.3125 L 13.640625 18.359375 C 12.480469 17.949219 11.566406 17.03125 11.152344 15.878906 Z M 18.84375 15.878906 C 18.433594 17.035156 17.515625 17.949219 16.359375 18.363281 L 16.359375 19.3125 C 18.019531 18.839844 19.324219 17.535156 19.796875 15.878906 Z M 23.5 15.878906 C 22.914062 19.539062 20.023438 22.433594 16.359375 23.019531 L 16.359375 23.9375 C 20.523438 23.335938 23.816406 20.039062 24.417969 15.878906 Z M 14.546875 17.238281 L 14.546875 25.402344 L 15.453125 25.402344 L 15.453125 17.238281 Z M 14.546875 17.238281 " fill-opacity="1" fill-rule="nonzero"/></g></svg>