<svg xmlns="http://www.w3.org/2000/svg" xmlns:xlink="http://www.w3.org/1999/xlink" width="40" zoomAndPan="magnify" viewBox="0 0 30 30.000001" height="40" preserveAspectRatio="xMidYMid meet" version="1.0"><defs><clipPath id="6e2eaef7a1"><path d="M 11 3.628906 L 19 3.628906 L 19 9 L 11 9 Z M 11 3.628906 " clip-rule="nonzero"/></clipPath><clipPath id="030ce1f230"><path d="M 11 20 L 19 20 L 19 25.402344 L 11 25.402344 Z M 11 20 " clip-rule="nonzero"/></clipPath><clipPath id="5d49c97f5d"><path d="M 4.113281 10 L 9 10 L 9 19 L 4.113281 19 Z M 4.113281 10 " clip-rule="nonzero"/></clipPath><clipPath id="12db127890"><path d="M 21 10 L 25.886719 10 L 25.886719 19 L 21 19 Z M 21 10 " clip-rule="nonzero"/></clipPath></defs><g clip-path="url(#6e2eaef7a1)"><path fill="#4e4e4e" d="M 14.304688 4.015625 C 14.691406 3.632812 15.3125 3.632812 15.695312 4.015625 L 18.636719 6.957031 L 17.25 8.34375 L 15 6.09375 L 12.75 8.34375 L 11.363281 6.957031 Z M 14.304688 4.015625 " fill-opacity="1" fill-rule="evenodd"/></g><g clip-path="url(#030ce1f230)"><path fill="#4e4e4e" d="M 14.304688 25.019531 C 14.691406 25.402344 15.3125 25.402344 15.695312 25.019531 L 18.636719 22.074219 L 17.25 20.6875 L 15 22.9375 L 12.75 20.6875 L 11.363281 22.074219 Z M 14.304688 25.019531 " fill-opacity="1" fill-rule="evenodd"/></g><g clip-path="url(#5d49c97f5d)"><path fill="#4e4e4e" d="M 6.578125 14.515625 L 8.828125 12.265625 L 7.441406 10.878906 L 4.5 13.824219 C 4.113281 14.207031 4.113281 14.828125 4.5 15.210938 L 7.441406 18.152344 L 8.828125 16.765625 Z M 6.578125 14.515625 " fill-opacity="1" fill-rule="evenodd"/></g><g clip-path="url(#12db127890)"><path fill="#4e4e4e" d="M 23.421875 14.515625 L 21.171875 12.265625 L 22.558594 10.878906 L 25.5 13.824219 C 25.882812 14.207031 25.882812 14.828125 25.5 15.210938 L 22.558594 18.152344 L 21.171875 16.765625 Z M 23.421875 14.515625 " fill-opacity="1" fill-rule="evenodd"/></g><path fill="#4e4e4e" d="M 14.019531 4.707031 L 15.980469 4.707031 L 15.980469 24.324219 L 14.019531 24.324219 Z M 14.019531 4.707031 " fill-opacity="1" fill-rule="evenodd"/><path fill="#4e4e4e" d="M 5.191406 13.535156 L 24.808594 13.535156 L 24.808594 15.496094 L 5.191406 15.496094 Z M 5.191406 13.535156 " fill-opacity="1" fill-rule="evenodd"/></svg>