<svg xmlns="http://www.w3.org/2000/svg" xmlns:xlink="http://www.w3.org/1999/xlink" width="40" zoomAndPan="magnify" viewBox="0 0 30 30.000001" height="40" preserveAspectRatio="xMidYMid meet" version="1.0"><defs><clipPath id="4417c1014a"><path d="M 9 4.355469 L 21 4.355469 L 21 16 L 9 16 Z M 9 4.355469 " clip-rule="nonzero"/></clipPath><clipPath id="e19def9996"><path d="M 5.078125 15 L 24.675781 15 L 24.675781 26.128906 L 5.078125 26.128906 Z M 5.078125 15 " clip-rule="nonzero"/></clipPath></defs><g clip-path="url(#4417c1014a)"><path fill="#4e4e4e" d="M 14.996094 15.648438 C 17.910156 15.648438 20.28125 12.554688 20.28125 9.640625 C 20.28125 6.726562 17.910156 4.355469 14.996094 4.355469 C 12.082031 4.355469 9.710938 6.726562 9.710938 9.640625 C 9.710938 12.554688 12.082031 15.648438 14.996094 15.648438 Z M 14.996094 15.648438 " fill-opacity="1" fill-rule="nonzero"/></g><g clip-path="url(#e19def9996)"><path fill="#4e4e4e" d="M 18.964844 15.703125 C 17.941406 16.484375 16.660156 16.949219 15.273438 16.949219 L 14.71875 16.949219 C 13.332031 16.949219 12.054688 16.484375 11.027344 15.703125 C 7.679688 16.246094 5.125 19.148438 5.125 22.648438 C 5.125 24.570312 9.542969 26.128906 14.996094 26.128906 C 20.449219 26.128906 24.871094 24.570312 24.871094 22.648438 C 24.871094 19.148438 22.3125 16.246094 18.964844 15.703125 Z M 18.964844 15.703125 " fill-opacity="1" fill-rule="nonzero"/></g></svg>