<svg xmlns="http://www.w3.org/2000/svg" xmlns:xlink="http://www.w3.org/1999/xlink" width="40" zoomAndPan="magnify" viewBox="0 0 30 30.000001" height="40" preserveAspectRatio="xMidYMid meet" version="1.0"><defs><clipPath id="ad9a9acd9f"><path d="M 5.757812 3.628906 L 23.902344 3.628906 L 23.902344 25.402344 L 5.757812 25.402344 Z M 5.757812 3.628906 " clip-rule="nonzero"/></clipPath></defs><g clip-path="url(#ad9a9acd9f)"><path fill="#4e4e4e" d="M 24.183594 17.523438 C 24.183594 17.53125 24.1875 17.535156 24.1875 17.539062 C 24.1875 17.175781 24.046875 16.84375 23.824219 16.59375 L 23.710938 16.480469 C 23.457031 16.257812 23.128906 16.117188 22.765625 16.117188 C 22.394531 16.117188 22.054688 16.265625 21.800781 16.5 L 21.726562 16.574219 C 21.613281 16.699219 21.519531 16.84375 21.453125 17 C 21.386719 17.167969 21.347656 17.347656 21.347656 17.539062 C 21.347656 17.546875 21.347656 17.558594 21.347656 17.566406 C 20.6875 20.4375 18.113281 22.582031 15.046875 22.582031 C 11.480469 22.582031 8.578125 19.679688 8.578125 16.109375 C 8.578125 13.167969 10.558594 10.683594 14.050781 9.902344 L 14.050781 10.1875 L 14.152344 10.1875 L 14.152344 13.691406 L 21.160156 8.773438 L 14.152344 3.625 L 14.152344 7.007812 C 8.960938 7.867188 5.753906 11.621094 5.753906 16.109375 C 5.753906 21.234375 9.921875 25.40625 15.046875 25.40625 C 19.6875 25.40625 23.542969 21.980469 24.230469 17.527344 C 24.214844 17.527344 24.199219 17.527344 24.183594 17.523438 " fill-opacity="1" fill-rule="nonzero"/></g></svg>