<svg xmlns="http://www.w3.org/2000/svg" xmlns:xlink="http://www.w3.org/1999/xlink" width="40" zoomAndPan="magnify" viewBox="0 0 30 30.000001" height="40" preserveAspectRatio="xMidYMid meet" version="1.0"><defs><clipPath id="e2414d88a3"><path d="M 4.113281 7.539062 L 18.464844 7.539062 L 18.464844 23.503906 L 4.113281 23.503906 Z M 4.113281 7.539062 " clip-rule="nonzero"/></clipPath><clipPath id="c6aa4d154d"><path d="M 11 6 L 25.886719 6 L 25.886719 22 L 11 22 Z M 11 6 " clip-rule="nonzero"/></clipPath></defs><g clip-path="url(#e2414d88a3)"><path fill="#4e4e4e" d="M 10.554688 19.273438 C 9.085938 17.808594 8.492188 15.769531 8.789062 13.84375 L 10.988281 14.578125 L 9.359375 7.953125 L 4.113281 12.308594 L 6.40625 13.0625 C 5.832031 15.859375 6.632812 18.886719 8.789062 21.039062 C 11.378906 23.628906 15.183594 24.25 18.347656 22.941406 L 17.75 20.492188 C 15.414062 21.636719 12.503906 21.222656 10.554688 19.273438 " fill-opacity="1" fill-rule="nonzero"/></g><g clip-path="url(#c6aa4d154d)"><path fill="#4e4e4e" d="M 23.59375 16.59375 C 24.167969 13.796875 23.367188 10.773438 21.210938 8.617188 C 18.621094 6.027344 14.816406 5.410156 11.652344 6.714844 L 12.25 9.167969 C 14.589844 8.023438 17.496094 8.433594 19.445312 10.382812 C 20.914062 11.851562 21.507812 13.890625 21.210938 15.816406 L 19.011719 15.082031 L 20.640625 21.703125 L 25.886719 17.351562 L 23.59375 16.59375 " fill-opacity="1" fill-rule="nonzero"/></g></svg>