<svg xmlns="http://www.w3.org/2000/svg" xmlns:xlink="http://www.w3.org/1999/xlink" width="40" zoomAndPan="magnify" viewBox="0 0 30 30.000001" height="40" preserveAspectRatio="xMidYMid meet" version="1.0"><defs><clipPath id="bacbdd5d1f"><path d="M 11 3.628906 L 19 3.628906 L 19 8 L 11 8 Z M 11 3.628906 " clip-rule="nonzero"/></clipPath><clipPath id="52bd9d8a3b"><path d="M 6.101562 6 L 24 6 L 24 12 L 6.101562 12 Z M 6.101562 6 " clip-rule="nonzero"/></clipPath><clipPath id="0b709f97c3"><path d="M 7 10 L 23 10 L 23 25.402344 L 7 25.402344 Z M 7 10 " clip-rule="nonzero"/></clipPath></defs><g clip-path="url(#bacbdd5d1f)"><path fill="#4e4e4e" d="M 18.011719 7.226562 C 17.828125 7.226562 17.683594 7.078125 17.683594 6.898438 L 17.683594 5.105469 C 17.683594 4.652344 17.316406 4.285156 16.863281 4.285156 L 13.140625 4.285156 C 12.6875 4.285156 12.320312 4.652344 12.320312 5.105469 L 12.320312 6.894531 C 12.320312 7.074219 12.171875 7.222656 11.992188 7.222656 C 11.8125 7.222656 11.664062 7.074219 11.664062 6.894531 L 11.664062 5.105469 C 11.664062 4.289062 12.324219 3.628906 13.140625 3.628906 L 16.863281 3.628906 C 17.683594 3.628906 18.34375 4.289062 18.34375 5.105469 L 18.34375 6.894531 C 18.339844 7.078125 18.191406 7.226562 18.011719 7.226562 Z M 18.011719 7.226562 " fill-opacity="1" fill-rule="evenodd"/></g><g clip-path="url(#52bd9d8a3b)"><path fill="#4e4e4e" d="M 6.773438 10.726562 L 23.230469 10.726562 L 23.230469 8.5 C 23.230469 7.792969 22.65625 7.214844 21.945312 7.214844 L 8.050781 7.214844 C 7.347656 7.214844 6.769531 7.789062 6.769531 8.5 L 6.769531 10.726562 Z M 23.558594 11.386719 L 6.441406 11.386719 C 6.257812 11.386719 6.113281 11.238281 6.113281 11.058594 L 6.113281 8.5 C 6.113281 7.425781 6.984375 6.558594 8.050781 6.558594 L 21.941406 6.558594 C 23.015625 6.558594 23.882812 7.433594 23.882812 8.5 L 23.882812 11.058594 C 23.886719 11.238281 23.738281 11.386719 23.558594 11.386719 Z M 23.558594 11.386719 " fill-opacity="1" fill-rule="evenodd"/></g><g clip-path="url(#0b709f97c3)"><path fill="#4e4e4e" d="M 20.570312 25.402344 L 9.433594 25.402344 C 8.722656 25.402344 8.128906 24.847656 8.085938 24.140625 L 7.28125 11.078125 C 7.273438 10.898438 7.410156 10.738281 7.589844 10.730469 C 7.773438 10.71875 7.929688 10.859375 7.941406 11.039062 L 8.742188 24.101562 C 8.761719 24.460938 9.066406 24.742188 9.433594 24.742188 L 20.5625 24.742188 C 20.925781 24.742188 21.230469 24.457031 21.253906 24.101562 L 22.058594 11.039062 C 22.070312 10.859375 22.226562 10.71875 22.40625 10.730469 C 22.589844 10.738281 22.726562 10.898438 22.714844 11.078125 L 21.910156 24.140625 C 21.871094 24.84375 21.28125 25.402344 20.570312 25.402344 Z M 20.570312 25.402344 " fill-opacity="1" fill-rule="evenodd"/></g><path fill="#4e4e4e" d="M 11.488281 22.832031 C 11.304688 22.832031 11.160156 22.683594 11.160156 22.503906 L 11.160156 13.066406 C 11.160156 12.886719 11.304688 12.738281 11.488281 12.738281 C 11.667969 12.738281 11.816406 12.886719 11.816406 13.066406 L 11.816406 22.503906 C 11.820312 22.683594 11.675781 22.832031 11.488281 22.832031 Z M 11.488281 22.832031 " fill-opacity="1" fill-rule="evenodd"/><path fill="#4e4e4e" d="M 15 22.832031 C 14.820312 22.832031 14.671875 22.683594 14.671875 22.503906 L 14.671875 13.066406 C 14.671875 12.886719 14.820312 12.738281 15 12.738281 C 15.183594 12.738281 15.328125 12.886719 15.328125 13.066406 L 15.328125 22.503906 C 15.328125 22.683594 15.183594 22.832031 15 22.832031 Z M 15 22.832031 " fill-opacity="1" fill-rule="evenodd"/><path fill="#4e4e4e" d="M 18.511719 22.832031 C 18.328125 22.832031 18.183594 22.683594 18.183594 22.503906 L 18.183594 13.066406 C 18.183594 12.886719 18.328125 12.738281 18.511719 12.738281 C 18.691406 12.738281 18.839844 12.886719 18.839844 13.066406 L 18.839844 22.503906 C 18.839844 22.683594 18.691406 22.832031 18.511719 22.832031 Z M 18.511719 22.832031 " fill-opacity="1" fill-rule="evenodd"/></svg>