<svg xmlns="http://www.w3.org/2000/svg" xmlns:xlink="http://www.w3.org/1999/xlink" width="40" zoomAndPan="magnify" viewBox="0 0 30 30.000001" height="40" preserveAspectRatio="xMidYMid meet" version="1.0"><defs><clipPath id="499914763f"><path d="M 5.757812 3.628906 L 23.902344 3.628906 L 23.902344 25.402344 L 5.757812 25.402344 Z M 5.757812 3.628906 " clip-rule="nonzero"/></clipPath><clipPath id="48a342d0ad"><path d="M 1.097656 0.628906 L 18.902344 0.628906 L 18.902344 22.402344 L 1.097656 22.402344 Z M 1.097656 0.628906 " clip-rule="nonzero"/></clipPath><clipPath id="af34dfd6cf"><rect x="0" width="19" y="0" height="23"/></clipPath></defs><g clip-path="url(#499914763f)"><g transform="matrix(1, 0, 0, 1, 5, 3)"><g clip-path="url(#af34dfd6cf)"><g clip-path="url(#48a342d0ad)"><path fill="#4e4e4e" d="M 0.8125 14.523438 C 0.8125 14.53125 0.8125 14.535156 0.8125 14.539062 C 0.8125 14.175781 0.949219 13.84375 1.171875 13.59375 L 1.289062 13.480469 C 1.539062 13.257812 1.867188 13.117188 2.230469 13.117188 C 2.601562 13.117188 2.941406 13.265625 3.195312 13.5 L 3.269531 13.574219 C 3.382812 13.699219 3.476562 13.84375 3.542969 14 C 3.609375 14.167969 3.648438 14.347656 3.648438 14.539062 C 3.648438 14.546875 3.648438 14.558594 3.648438 14.566406 C 4.3125 17.4375 6.882812 19.582031 9.949219 19.582031 C 13.519531 19.582031 16.421875 16.679688 16.421875 13.109375 C 16.421875 10.167969 14.4375 7.683594 10.945312 6.902344 L 10.945312 7.1875 L 10.847656 7.1875 L 10.847656 10.691406 L 3.835938 5.773438 L 10.847656 0.625 L 10.847656 4.007812 C 16.039062 4.867188 19.242188 8.621094 19.242188 13.109375 C 19.242188 18.234375 15.074219 22.40625 9.949219 22.40625 C 5.308594 22.40625 1.453125 18.980469 0.769531 14.527344 C 0.78125 14.527344 0.796875 14.527344 0.8125 14.523438 " fill-opacity="1" fill-rule="nonzero"/></g></g></g></g></svg>